# xmcd
#
# Track frame offsets: 
#        150
#        11934
#        23734
#        38412
#        50978
#        60714
#        75544
#        89209
#        104124
#        120241
#        131851
#        144302
#
# Disc length: 2064 seconds
#
# Revision: 4
# Processed by: cddbd v1.5.2PL0 Copyright (c) Steve Scherf et al.
# Submitted via: ExactAudioCopyFreeDBPlugin 1.0
#
DISCID=a8080e0c
DTITLE=Gary Bennett - Human Condition
DYEAR=2005
DGENRE=Country
TTITLE0=Human Condition
TTITLE1=Headin' Home
TTITLE2=Things That Mean A Lot To Me
TTITLE3=Just Wanna Be With You
TTITLE4=That's What I'm Here For
TTITLE5=Ain't Gettin' No Younger
TTITLE6=Steel Ball
TTITLE7=Better Than This
TTITLE8=My Illusion
TTITLE9=Ship In A Bottle
TTITLE10=What Turned Out To Be
TTITLE11=American Dreamin'
EXTD=
EXTT0=
EXTT1=
EXTT2=
EXTT3=
EXTT4=
EXTT5=
EXTT6=
EXTT7=
EXTT8=
EXTT9=
EXTT10=
EXTT11=
PLAYORDER=
